# 3ds Max Wavefront OBJ Exporter v0.97b - (c)2007 guruware
# File Created: 28.04.2015 10:33:20

mtllib ryggMidCol.mtl

#
# object rygg_mid
#

v  1.2938 -202.1720 -28.6688
v  1.2938 -207.1720 -28.6688
v  0.7762 -207.1720 -28.6007
v  0.7762 -202.1720 -28.6007
v  4.3791 -202.1720 -47.0964
v  0.2938 -202.1720 -28.4009
v  -0.1204 -202.1720 -28.0830
v  -0.4383 -202.1720 -27.6688
v  -0.6381 -202.1720 -27.1865
v  -2.6209 -202.1720 -47.0964
v  -0.7062 -202.1720 -26.6688
v  -2.6209 -202.1720 34.9036
v  -0.7062 -202.1720 -5.9606
v  -0.6381 -202.1720 -6.4782
v  -0.6381 -202.1720 -26.1512
v  -0.7062 -207.1720 -26.6688
v  -0.6381 -207.1720 -26.1512
v  -0.6381 -207.1720 -27.1865
v  -0.4383 -207.1720 -27.6688
v  -0.1204 -207.1720 -28.0830
v  0.2938 -207.1720 -28.4009
v  3.2256 -207.1720 -27.1865
v  3.2938 -207.1720 -26.6688
v  3.2256 -207.1720 -26.1512
v  2.7080 -207.1720 -28.0830
v  1.8114 -207.1720 -24.7370
v  2.7080 -207.1720 -25.2546
v  3.0258 -207.1720 -25.6688
v  2.2938 -207.1720 -24.9368
v  -0.1204 -207.1720 -25.2546
v  0.7762 -207.1720 -24.7370
v  1.2938 -207.1720 -24.6688
v  0.2938 -207.1720 -24.9368
v  -0.4383 -207.1720 -25.6688
v  1.8114 -207.1720 -28.6007
v  2.2938 -207.1720 -28.4009
v  3.0258 -207.1720 -27.6688
v  3.2256 -202.1720 -27.1865
v  3.0258 -202.1720 -27.6688
v  2.7080 -202.1720 -28.0830
v  2.2938 -202.1720 -28.4009
v  1.8114 -202.1720 -28.6007
v  3.2938 -202.1720 -26.6688
v  3.2938 -202.1720 13.5735
v  4.3791 -202.1720 34.9036
v  3.2256 -202.1720 14.0911
v  3.0258 -202.1720 14.5735
v  2.7080 -202.1720 14.9877
v  2.2938 -202.1720 15.3055
v  1.8114 -202.1720 15.5053
v  1.2938 -202.1720 15.5735
v  0.7762 -202.1720 15.5053
v  0.2938 -202.1720 15.3055
v  -0.1204 -202.1720 14.9877
v  -0.4383 -202.1720 14.5735
v  -0.6381 -202.1720 14.0911
v  -0.7062 -202.1720 13.5735
v  -0.6381 -202.1720 -5.4430
v  -0.6381 -202.1720 13.0558
v  -0.4383 -202.1720 -4.9606
v  -0.6381 -207.1720 -5.4430
v  -0.4383 -207.1720 -4.9606
v  -0.7062 -207.1720 -5.9606
v  -0.6381 -207.1720 -6.4782
v  -0.4383 -202.1720 -6.9606
v  -0.4383 -207.1720 -6.9606
v  -0.4383 -202.1720 -25.6688
v  -0.1204 -202.1720 -25.2546
v  -0.1204 -202.1720 -7.3748
v  -0.1204 -207.1720 -7.3748
v  0.2938 -202.1720 -7.6926
v  0.2938 -207.1720 -7.6926
v  0.2938 -202.1720 -24.9368
v  0.7762 -202.1720 -24.7370
v  0.7762 -202.1720 -7.8925
v  0.7762 -207.1720 -7.8925
v  1.2938 -202.1720 -7.9606
v  1.2938 -207.1720 -7.9606
v  1.2938 -202.1720 -24.6688
v  1.8114 -202.1720 -24.7370
v  1.8114 -202.1720 -7.8925
v  1.8114 -207.1720 -7.8925
v  2.2938 -202.1720 -7.6926
v  2.2938 -207.1720 -7.6926
v  2.2938 -202.1720 -24.9368
v  2.7080 -202.1720 -25.2546
v  2.7080 -202.1720 -7.3748
v  2.7080 -207.1720 -7.3748
v  3.0258 -202.1720 -6.9606
v  3.0258 -207.1720 -6.9606
v  3.0258 -202.1720 -25.6688
v  3.2256 -202.1720 -26.1512
v  3.2256 -202.1720 -6.4782
v  3.2256 -207.1720 -6.4782
v  3.2938 -202.1720 -5.9606
v  3.2938 -207.1720 -5.9606
v  3.2256 -202.1720 13.0558
v  3.2256 -202.1720 -5.4430
v  3.0258 -202.1720 12.5735
v  3.0258 -202.1720 -4.9606
v  2.7080 -202.1720 12.1593
v  2.7080 -202.1720 -4.5464
v  2.2938 -202.1720 11.8414
v  2.2938 -202.1720 -4.2285
v  1.8114 -202.1720 11.6416
v  1.8114 -202.1720 -4.0287
v  1.2938 -202.1720 11.5735
v  1.2938 -202.1720 -3.9606
v  0.7762 -202.1720 11.6416
v  0.7762 -202.1720 -4.0287
v  0.2938 -202.1720 11.8414
v  0.2938 -202.1720 -4.2285
v  -0.1204 -202.1720 12.1593
v  -0.1204 -202.1720 -4.5464
v  -0.4383 -202.1720 12.5735
v  -0.4383 -207.1720 12.5735
v  -0.6381 -207.1720 13.0558
v  -0.1204 -207.1720 12.1593
v  0.2938 -207.1720 11.8414
v  0.7762 -207.1720 11.6416
v  1.2938 -207.1720 11.5735
v  1.8114 -207.1720 11.6416
v  2.2938 -207.1720 11.8414
v  2.7080 -207.1720 12.1593
v  3.0258 -207.1720 12.5735
v  3.2256 -207.1720 13.0558
v  3.2938 -207.1720 13.5735
v  3.2256 -207.1720 14.0911
v  3.0258 -207.1720 14.5735
v  2.7080 -207.1720 14.9877
v  2.2938 -207.1720 15.3055
v  1.8114 -207.1720 15.5053
v  1.2938 -207.1720 15.5735
v  0.7762 -207.1720 15.5053
v  0.2938 -207.1720 15.3055
v  -0.1204 -207.1720 14.9877
v  -0.4383 -207.1720 14.5735
v  -0.6381 -207.1720 14.0911
v  -0.7062 -207.1720 13.5735
v  -0.1204 -207.1720 -4.5464
v  1.2938 -207.1720 -3.9606
v  3.0258 -207.1720 -4.9606
v  3.2256 -207.1720 -5.4430
v  2.2938 -207.1720 -4.2285
v  2.7080 -207.1720 -4.5464
v  1.8114 -207.1720 -4.0287
v  0.2938 -207.1720 -4.2285
v  0.7762 -207.1720 -4.0287
v  0.1545 -5.6894 34.9036
v  -2.6209 -5.6894 34.9036
v  1.7767 -5.6894 34.9036
v  4.3791 -5.6894 34.9036
v  -0.1669 -5.6894 -42.7627
v  0.1545 -5.6894 -42.7627
v  0.1545 -5.6894 -47.0964
v  -2.6209 -5.6894 -47.0964
v  -0.1669 -5.6894 31.2373
v  0.1545 -5.6894 31.2373
v  1.7767 -5.6894 31.2373
v  1.7767 -5.6894 -47.0964
v  1.7767 -5.6894 -42.7627
v  1.8331 -5.6894 -42.7627
v  1.8331 -5.6894 31.2373
v  4.3791 -5.6894 -47.0964
v  0.1545 -0.6894 -42.7627
v  1.7767 -0.6894 -42.7627
v  0.1545 -0.6894 31.2373
v  1.7767 -0.6894 31.2373
# 168 vertices

vn -0.0000 0.0000 -1.0000
vn -0.2588 0.0000 -0.9659
vn 0.0000 -1.0000 -0.0000
vn -1.0000 -0.0000 0.0000
vn -0.9659 -0.0000 0.2588
vn -0.9659 -0.0000 -0.2588
vn -0.8660 -0.0000 -0.5000
vn -0.7071 -0.0000 -0.7071
vn -0.5000 -0.0000 -0.8660
vn 0.0000 -1.0000 0.0000
vn 0.9659 -0.0000 -0.2588
vn 0.8660 -0.0000 -0.5000
vn 0.2588 -0.0000 -0.9659
vn 0.5000 -0.0000 -0.8660
vn 0.7071 -0.0000 -0.7071
vn -0.9659 0.0000 0.2588
vn -0.8660 0.0000 0.5000
vn -1.0000 0.0000 0.0000
vn -0.9659 0.0000 -0.2588
vn -0.8660 0.0000 -0.5000
vn -0.7071 0.0000 0.7071
vn -0.7071 0.0000 -0.7071
vn -0.5000 0.0000 0.8660
vn -0.2588 -0.0000 0.9659
vn -0.0000 -0.0000 1.0000
vn 0.2588 -0.0000 0.9659
vn 0.2588 0.0000 -0.9659
vn 0.5000 0.0000 -0.8660
vn 0.5000 0.0000 0.8660
vn 0.7071 0.0000 0.7071
vn 0.8660 -0.0000 0.5000
vn 0.9659 -0.0000 0.2588
vn 1.0000 -0.0000 -0.0000
vn -0.5000 0.0000 -0.8660
vn -0.0000 -0.0000 -1.0000
vn 0.7071 -0.0000 0.7071
vn 0.5000 -0.0000 0.8660
vn -0.0000 0.0000 1.0000
vn -0.2588 0.0000 0.9659
vn -0.5000 -0.0000 0.8660
vn -0.7071 -0.0000 0.7071
vn -1.0000 0.0000 -0.0000
vn 0.9659 0.0000 0.2588
vn 0.8660 0.0000 0.5000
vn 0.2588 0.0000 0.9659
vn 0.0000 0.0000 1.0000
vn 0.0000 1.0000 -0.0000
vn 0.0000 1.0000 0.0000
vn 0.0000 0.0000 -1.0000
vn 1.0000 -0.0000 0.0000
vn -0.0000 1.0000 0.0000
vn 1.0000 0.0000 0.0000
vn -1.0000 -0.0000 -0.0000
# 53 vertex normals

vt 0.0581 7.9324 0.0000
vt 0.0581 8.1292 0.0000
vt 0.0376 8.1292 0.0000
vt 0.0376 7.9324 0.0000
vt 0.1337 0.7282 0.0000
vt 0.2756 0.0000 0.0000
vt 0.1541 0.7255 0.0000
vt 0.1148 0.7360 0.0000
vt 0.0984 0.7486 0.0000
vt 0.0859 0.7649 0.0000
vt 0.0781 0.7839 0.0000
vt 0.0000 0.0000 0.0000
vt 0.0754 0.8042 0.0000
vt 0.0000 3.2283 0.0000
vt 0.0754 1.6195 0.0000
vt 0.0781 1.5991 0.0000
vt 0.0781 0.8246 0.0000
vt -0.8072 7.9324 0.0000
vt -0.8072 8.1292 0.0000
vt -0.8277 8.1292 0.0000
vt -0.8277 7.9324 0.0000
vt -0.7670 7.9324 0.0000
vt -0.7670 8.1292 0.0000
vt -0.7875 8.1292 0.0000
vt -0.7875 7.9324 0.0000
vt -0.6738 7.9324 0.0000
vt -0.6738 8.1292 0.0000
vt -0.6943 8.1292 0.0000
vt -0.6943 7.9324 0.0000
vt -0.5339 7.9324 0.0000
vt -0.5339 8.1292 0.0000
vt -0.5545 8.1292 0.0000
vt -0.5545 7.9324 0.0000
vt -0.3570 7.9324 0.0000
vt -0.3570 8.1292 0.0000
vt -0.3776 8.1292 0.0000
vt -0.3776 7.9324 0.0000
vt -0.1551 7.9324 0.0000
vt -0.1551 8.1292 0.0000
vt -0.1757 8.1292 0.0000
vt -0.1757 7.9324 0.0000
vt 0.2302 0.7839 0.0000
vt 0.2329 0.8042 0.0000
vt 0.2302 0.8246 0.0000
vt 0.2098 0.7486 0.0000
vt 0.1745 0.8803 0.0000
vt 0.2098 0.8599 0.0000
vt 0.2223 0.8436 0.0000
vt 0.1935 0.8724 0.0000
vt 0.0984 0.8599 0.0000
vt 0.1337 0.8803 0.0000
vt 0.1541 0.8830 0.0000
vt 0.1148 0.8724 0.0000
vt 0.0859 0.8436 0.0000
vt 0.1745 0.7282 0.0000
vt 0.1935 0.7360 0.0000
vt 0.2223 0.7649 0.0000
vt 0.8123 7.9324 0.0000
vt 0.8123 8.1292 0.0000
vt 0.7917 8.1292 0.0000
vt 0.7917 7.9324 0.0000
vt 0.2681 7.9324 0.0000
vt 0.2681 8.1292 0.0000
vt 0.2475 8.1292 0.0000
vt 0.2475 7.9324 0.0000
vt 0.4604 7.9324 0.0000
vt 0.4604 8.1292 0.0000
vt 0.4399 8.1292 0.0000
vt 0.4399 7.9324 0.0000
vt 0.6221 7.9324 0.0000
vt 0.6221 8.1292 0.0000
vt 0.6016 8.1292 0.0000
vt 0.6016 7.9324 0.0000
vt 0.7421 7.9324 0.0000
vt 0.7421 8.1292 0.0000
vt 0.7216 8.1292 0.0000
vt 0.7216 7.9324 0.0000
vt 0.2329 2.3886 0.0000
vt 0.2756 3.2283 0.0000
vt 0.2302 2.4090 0.0000
vt 0.2223 2.4279 0.0000
vt 0.2098 2.4443 0.0000
vt 0.1935 2.4568 0.0000
vt 0.1745 2.4646 0.0000
vt 0.1541 2.4673 0.0000
vt 0.1337 2.4646 0.0000
vt 0.1148 2.4568 0.0000
vt 0.0984 2.4443 0.0000
vt 0.0859 2.4279 0.0000
vt 0.0781 2.4090 0.0000
vt 0.0754 2.3886 0.0000
vt 0.0781 1.6399 0.0000
vt 0.0781 2.3682 0.0000
vt 0.0859 1.6589 0.0000
vt -1.5449 7.9324 0.0000
vt -1.5449 8.1292 0.0000
vt -1.5655 8.1292 0.0000
vt -1.5655 7.9324 0.0000
vt -1.6155 7.9324 0.0000
vt -1.6155 8.1292 0.0000
vt -1.6361 8.1292 0.0000
vt -1.6361 7.9324 0.0000
vt -1.5753 7.9324 0.0000
vt -1.5753 8.1292 0.0000
vt -1.5958 8.1292 0.0000
vt -1.5958 7.9324 0.0000
vt -1.4270 7.9324 0.0000
vt -1.4270 8.1292 0.0000
vt -1.4475 8.1292 0.0000
vt -1.4475 7.9324 0.0000
vt 0.0859 1.5802 0.0000
vt -0.7917 7.9324 0.0000
vt -0.7917 8.1292 0.0000
vt -0.8123 8.1292 0.0000
vt -0.8123 7.9324 0.0000
vt -0.7216 7.9324 0.0000
vt -0.7216 8.1292 0.0000
vt -0.7421 8.1292 0.0000
vt -0.7421 7.9324 0.0000
vt 0.0984 1.5638 0.0000
vt -1.1808 7.9324 0.0000
vt -1.1808 8.1292 0.0000
vt -1.2013 8.1292 0.0000
vt -1.2013 7.9324 0.0000
vt -0.8533 7.9324 0.0000
vt -0.8533 8.1292 0.0000
vt -0.8739 8.1292 0.0000
vt -0.8739 7.9324 0.0000
vt 0.1148 1.5513 0.0000
vt -0.6016 7.9324 0.0000
vt -0.6016 8.1292 0.0000
vt -0.6221 8.1292 0.0000
vt -0.6221 7.9324 0.0000
vt -0.4399 7.9324 0.0000
vt -0.4399 8.1292 0.0000
vt -0.4604 8.1292 0.0000
vt -0.4604 7.9324 0.0000
vt 0.1337 1.5435 0.0000
vt -0.4671 7.9324 0.0000
vt -0.4671 8.1292 0.0000
vt -0.4877 8.1292 0.0000
vt -0.4877 7.9324 0.0000
vt -0.0483 7.9324 0.0000
vt -0.0483 8.1292 0.0000
vt -0.0689 8.1292 0.0000
vt -0.0689 7.9324 0.0000
vt 0.1541 1.5408 0.0000
vt -0.2475 7.9324 0.0000
vt -0.2475 8.1292 0.0000
vt -0.2681 8.1292 0.0000
vt -0.2681 7.9324 0.0000
vt -0.0376 7.9324 0.0000
vt -0.0376 8.1292 0.0000
vt -0.0581 8.1292 0.0000
vt -0.0581 7.9324 0.0000
vt 0.1745 1.5435 0.0000
vt 0.3745 7.9324 0.0000
vt 0.3745 8.1292 0.0000
vt 0.3539 8.1292 0.0000
vt 0.3539 7.9324 0.0000
vt 0.7724 7.9324 0.0000
vt 0.7724 8.1292 0.0000
vt 0.7519 8.1292 0.0000
vt 0.7519 7.9324 0.0000
vt 0.1935 1.5513 0.0000
vt 0.1757 7.9324 0.0000
vt 0.1757 8.1292 0.0000
vt 0.1551 8.1292 0.0000
vt 0.1551 7.9324 0.0000
vt 0.3776 7.9324 0.0000
vt 0.3776 8.1292 0.0000
vt 0.3570 8.1292 0.0000
vt 0.3570 7.9324 0.0000
vt 0.2098 1.5638 0.0000
vt 1.1185 7.9324 0.0000
vt 1.1185 8.1292 0.0000
vt 1.0979 8.1292 0.0000
vt 1.0979 7.9324 0.0000
vt 1.3889 7.9324 0.0000
vt 1.3889 8.1292 0.0000
vt 1.3684 8.1292 0.0000
vt 1.3684 7.9324 0.0000
vt 0.2223 1.5802 0.0000
vt 0.5545 7.9324 0.0000
vt 0.5545 8.1292 0.0000
vt 0.5339 8.1292 0.0000
vt 0.5339 7.9324 0.0000
vt 0.6943 7.9324 0.0000
vt 0.6943 8.1292 0.0000
vt 0.6738 8.1292 0.0000
vt 0.6738 7.9324 0.0000
vt 0.2302 1.5991 0.0000
vt 1.5655 7.9324 0.0000
vt 1.5655 8.1292 0.0000
vt 1.5449 8.1292 0.0000
vt 1.5449 7.9324 0.0000
vt 1.6361 7.9324 0.0000
vt 1.6361 8.1292 0.0000
vt 1.6155 8.1292 0.0000
vt 1.6155 7.9324 0.0000
vt 0.2329 1.6195 0.0000
vt 0.7875 7.9324 0.0000
vt 0.7875 8.1292 0.0000
vt 0.7670 8.1292 0.0000
vt 0.7670 7.9324 0.0000
vt 0.8277 7.9324 0.0000
vt 0.8277 8.1292 0.0000
vt 0.8072 8.1292 0.0000
vt 0.8072 7.9324 0.0000
vt 0.2302 2.3682 0.0000
vt 0.2302 1.6399 0.0000
vt 0.2223 2.3492 0.0000
vt 0.2223 1.6589 0.0000
vt 0.2098 2.3329 0.0000
vt 0.2098 1.6752 0.0000
vt 0.1935 2.3204 0.0000
vt 0.1935 1.6877 0.0000
vt 0.1745 2.3125 0.0000
vt 0.1745 1.6956 0.0000
vt 0.1541 2.3098 0.0000
vt 0.1541 1.6983 0.0000
vt 0.1337 2.3125 0.0000
vt 0.1337 1.6956 0.0000
vt 0.1148 2.3204 0.0000
vt 0.1148 1.6877 0.0000
vt 0.0984 2.3329 0.0000
vt 0.0984 1.6752 0.0000
vt 0.0859 2.3492 0.0000
vt -2.1375 7.9324 0.0000
vt -2.1375 8.1292 0.0000
vt -2.1581 8.1292 0.0000
vt -2.1581 7.9324 0.0000
vt -1.7909 7.9324 0.0000
vt -1.7909 8.1292 0.0000
vt -1.8114 8.1292 0.0000
vt -1.8114 7.9324 0.0000
vt -1.3215 7.9324 0.0000
vt -1.3215 8.1292 0.0000
vt -1.3421 8.1292 0.0000
vt -1.3421 7.9324 0.0000
vt -0.7614 7.9324 0.0000
vt -0.7614 8.1292 0.0000
vt -0.7820 8.1292 0.0000
vt -0.7820 7.9324 0.0000
vt -0.1487 7.9324 0.0000
vt -0.1487 8.1292 0.0000
vt -0.1692 8.1292 0.0000
vt -0.1692 7.9324 0.0000
vt 0.4749 7.9324 0.0000
vt 0.4749 8.1292 0.0000
vt 0.4543 8.1292 0.0000
vt 0.4543 7.9324 0.0000
vt 1.0667 7.9324 0.0000
vt 1.0667 8.1292 0.0000
vt 1.0462 8.1292 0.0000
vt 1.0462 7.9324 0.0000
vt 1.5866 7.9324 0.0000
vt 1.5866 8.1292 0.0000
vt 1.5661 8.1292 0.0000
vt 1.5661 7.9324 0.0000
vt 1.9991 7.9324 0.0000
vt 1.9991 8.1292 0.0000
vt 1.9785 8.1292 0.0000
vt 1.9785 7.9324 0.0000
vt 2.2760 7.9324 0.0000
vt 2.2760 8.1292 0.0000
vt 2.2555 8.1292 0.0000
vt 2.2555 7.9324 0.0000
vt 2.3985 7.9324 0.0000
vt 2.3985 8.1292 0.0000
vt 2.3780 8.1292 0.0000
vt 2.3780 7.9324 0.0000
vt 2.3583 7.9324 0.0000
vt 2.3583 8.1292 0.0000
vt 2.3377 8.1292 0.0000
vt 2.3377 7.9324 0.0000
vt 2.1581 7.9324 0.0000
vt 2.1581 8.1292 0.0000
vt 2.1375 8.1292 0.0000
vt 2.1375 7.9324 0.0000
vt 1.8114 7.9324 0.0000
vt 1.8114 8.1292 0.0000
vt 1.7909 8.1292 0.0000
vt 1.7909 7.9324 0.0000
vt 1.3421 7.9324 0.0000
vt 1.3421 8.1292 0.0000
vt 1.3215 8.1292 0.0000
vt 1.3215 7.9324 0.0000
vt 0.7820 7.9324 0.0000
vt 0.7820 8.1292 0.0000
vt 0.7614 8.1292 0.0000
vt 0.7614 7.9324 0.0000
vt 0.1692 7.9324 0.0000
vt 0.1692 8.1292 0.0000
vt 0.1487 8.1292 0.0000
vt 0.1487 7.9324 0.0000
vt -0.4543 7.9324 0.0000
vt -0.4543 8.1292 0.0000
vt -0.4749 8.1292 0.0000
vt -0.4749 7.9324 0.0000
vt -1.0462 7.9324 0.0000
vt -1.0462 8.1292 0.0000
vt -1.0667 8.1292 0.0000
vt -1.0667 7.9324 0.0000
vt -1.5661 7.9324 0.0000
vt -1.5661 8.1292 0.0000
vt -1.5866 8.1292 0.0000
vt -1.5866 7.9324 0.0000
vt -1.9785 7.9324 0.0000
vt -1.9785 8.1292 0.0000
vt -1.9991 8.1292 0.0000
vt -1.9991 7.9324 0.0000
vt -2.2555 7.9324 0.0000
vt -2.2555 8.1292 0.0000
vt -2.2760 8.1292 0.0000
vt -2.2760 7.9324 0.0000
vt -2.3780 7.9324 0.0000
vt -2.3780 8.1292 0.0000
vt -2.3985 8.1292 0.0000
vt -2.3985 7.9324 0.0000
vt -2.3377 7.9324 0.0000
vt -2.3377 8.1292 0.0000
vt -2.3583 8.1292 0.0000
vt -2.3583 7.9324 0.0000
vt -1.3684 7.9324 0.0000
vt -1.3684 8.1292 0.0000
vt -1.3889 8.1292 0.0000
vt -1.3889 7.9324 0.0000
vt 1.5958 7.9324 0.0000
vt 1.5958 8.1292 0.0000
vt 1.5753 8.1292 0.0000
vt 1.5753 7.9324 0.0000
vt 1.4475 7.9324 0.0000
vt 1.4475 8.1292 0.0000
vt 1.4270 8.1292 0.0000
vt 1.4270 7.9324 0.0000
vt 1.2013 7.9324 0.0000
vt 1.2013 8.1292 0.0000
vt 1.1808 8.1292 0.0000
vt 1.1808 7.9324 0.0000
vt 0.8739 7.9324 0.0000
vt 0.8739 8.1292 0.0000
vt 0.8533 8.1292 0.0000
vt 0.8533 7.9324 0.0000
vt 0.4877 7.9324 0.0000
vt 0.4877 8.1292 0.0000
vt 0.4671 8.1292 0.0000
vt 0.4671 7.9324 0.0000
vt 0.0689 7.9324 0.0000
vt 0.0689 8.1292 0.0000
vt 0.0483 8.1292 0.0000
vt 0.0483 7.9324 0.0000
vt -0.3539 7.9324 0.0000
vt -0.3539 8.1292 0.0000
vt -0.3745 8.1292 0.0000
vt -0.3745 7.9324 0.0000
vt -0.7519 7.9324 0.0000
vt -0.7519 8.1292 0.0000
vt -0.7724 8.1292 0.0000
vt -0.7724 7.9324 0.0000
vt -1.0979 7.9324 0.0000
vt -1.0979 8.1292 0.0000
vt -1.1185 8.1292 0.0000
vt -1.1185 7.9324 0.0000
vt -0.1093 0.1969 0.0000
vt -0.0000 0.1969 0.0000
vt 0.0000 7.9324 0.0000
vt -0.1731 0.1969 0.0000
vt -0.2756 0.1969 0.0000
vt -0.2756 7.9324 0.0000
vt -0.0966 0.1706 0.0000
vt -0.1093 0.1706 0.0000
vt -0.1093 -0.0000 0.0000
vt -0.0000 0.0000 0.0000
vt -0.0966 3.0840 0.0000
vt -0.0000 3.2283 0.0000
vt -0.1093 3.0840 0.0000
vt -0.1093 3.2283 0.0000
vt -0.1731 3.0840 0.0000
vt -0.1731 3.2283 0.0000
vt -0.1731 -0.0000 0.0000
vt -0.1731 0.1706 0.0000
vt -0.1754 0.1706 0.0000
vt -0.2756 3.2283 0.0000
vt -0.1754 3.0840 0.0000
vt -0.2756 -0.0000 0.0000
vt 0.1093 0.1969 0.0000
vt 0.1093 0.0000 0.0000
vt 0.1731 0.0000 0.0000
vt 0.1731 0.1969 0.0000
vt -3.0840 0.1969 0.0000
vt -3.0840 -0.0000 0.0000
vt -0.1706 -0.0000 0.0000
vt -0.1706 0.1969 0.0000
vt -0.1731 0.0000 0.0000
vt -0.1093 0.0000 0.0000
vt 0.1706 0.1969 0.0000
vt 0.1706 -0.0000 0.0000
vt 3.0840 -0.0000 0.0000
vt 3.0840 0.1969 0.0000
vt 0.2756 0.1969 0.0000
vt 0.2756 7.9324 0.0000
vt 0.0000 0.1969 0.0000
vt -0.0000 7.9324 0.0000
vt 3.2283 0.1969 0.0000
vt 3.2283 7.9324 0.0000
vt -3.2283 7.9324 0.0000
vt -3.2283 0.1969 0.0000
# 408 texture coords

g rygg_mid
usemtl FrontColor
s 1
f 1/1/1 2/2/1 3/3/2 4/4/2 
f 4/5/3 5/6/3 1/7/3 
f 6/8/3 5/6/3 4/5/3 
f 7/9/3 5/6/3 6/8/3 
f 8/10/3 5/6/3 7/9/3 
f 9/11/3 5/6/3 8/10/3 
f 9/11/3 10/12/3 5/6/3 
f 11/13/3 10/12/3 9/11/3 
f 10/12/3 11/13/3 12/14/3 
f 12/14/3 11/13/3 13/15/3 
f 11/13/3 14/16/3 13/15/3 
f 14/16/3 11/13/3 15/17/3 
f 11/18/4 16/19/4 17/20/5 15/21/5 
f 9/22/6 18/23/6 16/24/4 11/25/4 
f 8/26/7 19/27/7 18/28/6 9/29/6 
f 7/30/8 20/31/8 19/32/7 8/33/7 
f 6/34/9 21/35/9 20/36/8 7/37/8 
f 4/38/2 3/39/2 21/40/9 6/41/9 
f 22/42/10 23/43/10 24/44/10 25/45/10 
f 26/46/10 25/45/10 24/44/10 27/47/10 
f 24/44/10 28/48/10 27/47/10 
f 27/47/10 29/49/10 26/46/10 
f 18/11/10 25/45/10 26/46/10 30/50/10 
f 31/51/10 30/50/10 26/46/10 32/52/10 
f 31/51/10 33/53/10 30/50/10 
f 17/17/10 18/11/10 30/50/10 34/54/10 
f 17/17/10 16/13/10 18/11/10 
f 3/5/10 25/45/10 18/11/10 20/9/10 
f 18/11/10 19/10/10 20/9/10 
f 20/9/10 21/8/10 3/5/10 
f 35/55/10 25/45/10 3/5/10 2/7/10 
f 35/55/10 36/56/10 25/45/10 
f 37/57/10 22/42/10 25/45/10 
f 38/58/11 22/59/11 37/60/12 39/61/12 
f 39/57/3 5/6/3 38/42/3 
f 40/45/3 5/6/3 39/57/3 
f 41/56/3 5/6/3 40/45/3 
f 42/55/3 5/6/3 41/56/3 
f 1/7/3 5/6/3 42/55/3 
f 42/62/13 35/63/13 2/64/1 1/65/1 
f 41/66/14 36/67/14 35/68/13 42/69/13 
f 40/70/15 25/71/15 36/72/14 41/73/14 
f 39/74/12 37/75/12 25/76/15 40/77/15 
f 38/42/3 5/6/3 43/43/3 
f 43/43/3 5/6/3 44/78/3 
f 45/79/3 44/78/3 5/6/3 
f 45/79/3 46/80/3 44/78/3 
f 45/79/3 47/81/3 46/80/3 
f 45/79/3 48/82/3 47/81/3 
f 45/79/3 49/83/3 48/82/3 
f 45/79/3 50/84/3 49/83/3 
f 45/79/3 51/85/3 50/84/3 
f 45/79/3 52/86/3 51/85/3 
f 45/79/3 53/87/3 52/86/3 
f 45/79/3 54/88/3 53/87/3 
f 45/79/3 55/89/3 54/88/3 
f 45/79/3 56/90/3 55/89/3 
f 12/14/3 56/90/3 45/79/3 
f 56/90/3 12/14/3 57/91/3 
f 57/91/3 12/14/3 13/15/3 
f 58/92/3 57/91/3 13/15/3 
f 57/91/3 58/92/3 59/93/3 
f 59/93/3 58/92/3 60/94/3 
f 58/95/16 61/96/16 62/97/17 60/98/17 
f 13/99/18 63/100/18 61/101/16 58/102/16 
f 14/103/19 64/104/19 63/105/18 13/106/18 
f 65/107/20 66/108/20 64/109/19 14/110/19 
f 14/16/3 15/17/3 65/111/3 
f 65/111/3 15/17/3 67/54/3 
f 15/112/5 17/113/5 34/114/17 67/115/17 
f 67/116/17 34/117/17 30/118/21 68/119/21 
f 69/120/3 67/54/3 68/50/3 
f 65/111/3 67/54/3 69/120/3 
f 69/121/22 70/122/22 66/123/20 65/124/20 
f 71/125/9 72/126/9 70/127/22 69/128/22 
f 69/120/3 68/50/3 71/129/3 
f 71/129/3 68/50/3 73/53/3 
f 68/130/21 30/131/21 33/132/23 73/133/23 
f 73/134/23 33/135/23 31/136/24 74/137/24 
f 75/138/3 73/53/3 74/51/3 
f 71/129/3 73/53/3 75/138/3 
f 75/139/2 76/140/2 72/141/9 71/142/9 
f 77/143/1 78/144/1 76/145/2 75/146/2 
f 75/138/3 74/51/3 77/147/3 
f 77/147/3 74/51/3 79/52/3 
f 74/148/24 31/149/24 32/150/25 79/151/25 
f 79/152/25 32/153/25 26/154/26 80/155/26 
f 81/156/3 79/52/3 80/46/3 
f 77/147/3 79/52/3 81/156/3 
f 81/157/27 82/158/27 78/159/1 77/160/1 
f 83/161/28 84/162/28 82/163/27 81/164/27 
f 81/156/3 80/46/3 83/165/3 
f 83/165/3 80/46/3 85/49/3 
f 80/166/26 26/167/26 29/168/29 85/169/29 
f 85/170/29 29/171/29 27/172/30 86/173/30 
f 87/174/3 85/49/3 86/47/3 
f 83/165/3 85/49/3 87/174/3 
f 87/175/15 88/176/15 84/177/28 83/178/28 
f 89/179/12 90/180/12 88/181/15 87/182/15 
f 87/174/3 86/47/3 89/183/3 
f 89/183/3 86/47/3 91/48/3 
f 86/184/30 27/185/30 28/186/31 91/187/31 
f 91/188/31 28/189/31 24/190/32 92/191/32 
f 93/192/3 91/48/3 92/44/3 
f 89/183/3 91/48/3 93/192/3 
f 93/193/11 94/194/11 90/195/12 89/196/12 
f 95/197/33 96/198/33 94/199/11 93/200/11 
f 93/192/3 92/44/3 95/201/3 
f 95/201/3 92/44/3 43/43/3 
f 92/202/32 24/203/32 23/204/33 43/205/33 
f 43/206/33 23/207/33 22/208/11 38/209/11 
f 44/78/3 95/201/3 43/43/3 
f 97/210/3 95/201/3 44/78/3 
f 97/210/3 98/211/3 95/201/3 
f 99/212/3 98/211/3 97/210/3 
f 99/212/3 100/213/3 98/211/3 
f 101/214/3 100/213/3 99/212/3 
f 101/214/3 102/215/3 100/213/3 
f 103/216/3 102/215/3 101/214/3 
f 103/216/3 104/217/3 102/215/3 
f 105/218/3 104/217/3 103/216/3 
f 105/218/3 106/219/3 104/217/3 
f 107/220/3 106/219/3 105/218/3 
f 107/220/3 108/221/3 106/219/3 
f 109/222/3 108/221/3 107/220/3 
f 109/222/3 110/223/3 108/221/3 
f 111/224/3 110/223/3 109/222/3 
f 111/224/3 112/225/3 110/223/3 
f 113/226/3 112/225/3 111/224/3 
f 113/226/3 114/227/3 112/225/3 
f 115/228/3 114/227/3 113/226/3 
f 115/228/3 60/94/3 114/227/3 
f 59/93/3 60/94/3 115/228/3 
f 115/229/20 116/230/20 117/231/19 59/232/19 
f 113/233/22 118/234/22 116/235/20 115/236/20 
f 111/237/34 119/238/34 118/239/22 113/240/22 
f 109/241/2 120/242/2 119/243/34 111/244/34 
f 107/245/35 121/246/35 120/247/2 109/248/2 
f 105/249/13 122/250/13 121/251/35 107/252/35 
f 103/253/14 123/254/14 122/255/13 105/256/13 
f 101/257/15 124/258/15 123/259/14 103/260/14 
f 99/261/12 125/262/12 124/263/15 101/264/15 
f 97/265/11 126/266/11 125/267/12 99/268/12 
f 44/269/33 127/270/33 126/271/11 97/272/11 
f 46/273/32 128/274/32 127/275/33 44/276/33 
f 47/277/31 129/278/31 128/279/32 46/280/32 
f 48/281/36 130/282/36 129/283/31 47/284/31 
f 49/285/37 131/286/37 130/287/36 48/288/36 
f 50/289/26 132/290/26 131/291/37 49/292/37 
f 51/293/38 133/294/38 132/295/26 50/296/26 
f 52/297/39 134/298/39 133/299/38 51/300/38 
f 53/301/40 135/302/40 134/303/39 52/304/39 
f 54/305/41 136/306/41 135/307/40 53/308/40 
f 55/309/17 137/310/17 136/311/41 54/312/41 
f 56/313/16 138/314/16 137/315/17 55/316/17 
f 57/317/42 139/318/42 138/319/16 56/320/16 
f 59/321/19 117/322/19 139/323/42 57/324/42 
f 131/83/3 132/84/3 133/85/3 129/81/3 
f 137/89/3 129/81/3 133/85/3 135/87/3 
f 133/85/3 134/86/3 135/87/3 
f 135/87/3 136/88/3 137/89/3 
f 121/220/3 129/81/3 137/89/3 116/228/3 
f 139/91/3 116/228/3 137/89/3 138/90/3 
f 139/91/3 117/93/3 116/228/3 
f 119/224/3 121/220/3 116/228/3 118/226/3 
f 119/224/3 120/222/3 121/220/3 
f 125/212/3 129/81/3 121/220/3 123/216/3 
f 121/220/3 122/218/3 123/216/3 
f 123/216/3 124/214/3 125/212/3 
f 127/78/3 129/81/3 125/212/3 126/210/3 
f 127/78/3 128/80/3 129/81/3 
f 130/82/3 131/83/3 129/81/3 
f 60/325/17 62/326/17 140/327/21 114/328/21 
f 72/129/3 76/138/3 78/147/3 66/111/3 
f 90/183/3 66/111/3 78/147/3 84/165/3 
f 78/147/3 82/156/3 84/165/3 
f 84/165/3 88/174/3 90/183/3 
f 141/221/3 66/111/3 90/183/3 142/213/3 
f 96/201/3 142/213/3 90/183/3 94/192/3 
f 96/201/3 143/211/3 142/213/3 
f 144/217/3 141/221/3 142/213/3 145/215/3 
f 144/217/3 146/219/3 141/221/3 
f 62/94/3 66/111/3 141/221/3 147/225/3 
f 141/221/3 148/223/3 147/225/3 
f 147/225/3 140/227/3 62/94/3 
f 63/15/3 66/111/3 62/94/3 61/92/3 
f 63/15/3 64/16/3 66/111/3 
f 70/120/3 72/129/3 66/111/3 
f 98/329/43 143/330/43 96/331/33 95/332/33 
f 100/333/44 142/334/44 143/335/43 98/336/43 
f 102/337/30 145/338/30 142/339/44 100/340/44 
f 104/341/29 144/342/29 145/343/30 102/344/30 
f 106/345/45 146/346/45 144/347/29 104/348/29 
f 108/349/46 141/350/46 146/351/45 106/352/45 
f 110/353/39 148/354/39 141/355/46 108/356/46 
f 112/357/23 147/358/23 148/359/39 110/360/39 
f 114/361/21 140/362/21 147/363/23 112/364/23 
f 149/365/38 150/366/38 12/367/38 151/368/38 
f 152/369/38 151/368/38 12/367/38 45/370/38 
f 153/371/47 154/372/47 155/373/47 156/374/47 
f 157/375/47 153/371/47 156/374/47 150/376/47 
f 158/377/47 157/375/47 150/376/47 149/378/47 
f 159/379/48 158/377/48 149/378/48 151/380/48 
f 160/381/48 161/382/48 162/383/48 152/384/48 
f 152/384/48 162/383/48 163/385/48 151/380/48 
f 163/385/48 159/379/48 151/380/48 
f 160/381/48 152/384/48 164/386/48 
f 154/372/47 161/382/47 160/381/47 155/373/47 
f 154/387/49 165/388/49 166/389/49 161/390/49 
f 158/391/42 167/392/42 165/393/42 154/394/42 
f 154/372/48 153/371/48 157/375/48 158/377/48 
f 159/368/25 168/395/25 167/396/25 158/365/25 
f 161/397/50 166/398/50 168/399/50 159/400/50 
f 159/379/51 163/385/51 162/383/51 161/382/51 
f 167/377/48 168/379/48 166/382/48 165/372/48 
f 160/390/35 164/401/35 5/402/35 155/387/35 
f 156/403/35 155/387/35 5/402/35 10/404/35 
f 152/405/52 45/406/52 5/367/52 164/403/52 
f 156/366/53 10/404/53 12/407/53 150/408/53 
# 113 polygons - 106 triangles

